<svg xmlns:xlink="http://www.w3.org/1999/xlink"  xmlns="http://www.w3.org/2000/svg" width="100" height="92" viewBox="0 0 100 92" fill="none">
<g clip-path="url(#clip0_29_459)">
<path d="M43.3114 91.3209L40.1315 83.2888L36.5635 91.358L31.1838 77.3291H33.6977L36.8405 86.3238L39.0774 80.5867L37.7834 77.3291H39.9092L43.3661 86.0651L46.2505 77.3291H48.5615L43.3114 91.3209Z" fill="black"/>
<path d="M50.1519 80.5774C50.7679 79.5222 51.6034 78.6802 52.6565 78.0515C53.7106 77.4218 54.8592 77.1075 56.1041 77.1075C57.349 77.1075 58.48 77.4218 59.5331 78.0515C60.5863 78.6811 61.4283 79.5259 62.0563 80.5867C62.6852 81.6484 62.9992 82.789 62.9992 84.0102C62.9992 85.2314 62.688 86.4045 62.0656 87.4523C61.4431 88.5011 60.6021 89.3338 59.5424 89.9504C58.4818 90.568 57.336 90.8758 56.1041 90.8758C54.8722 90.8758 53.7097 90.5708 52.6565 89.9597C51.6024 89.3486 50.7679 88.5196 50.1519 87.4708C49.535 86.4221 49.2275 85.2685 49.2275 84.0102C49.2275 82.7519 49.535 81.6317 50.1519 80.5774ZM52.0748 86.4165C52.4935 87.1444 53.0641 87.724 53.7847 88.1561C54.5054 88.5882 55.2973 88.8043 56.1606 88.8043C57.0239 88.8043 57.7871 88.591 58.4902 88.1654C59.1923 87.7398 59.7499 87.1602 60.163 86.4258C60.5761 85.6914 60.7827 84.8865 60.7827 84.0102C60.7827 83.1339 60.5733 82.3263 60.1537 81.5854C59.7341 80.8454 59.1673 80.2593 58.4531 79.8272C57.738 79.3951 56.9553 79.1791 56.105 79.1791C55.2547 79.1791 54.4563 79.3951 53.7477 79.8272C53.0391 80.2593 52.4778 80.8454 52.0656 81.5854C51.6524 82.3253 51.4459 83.1339 51.4459 84.0102C51.4459 84.8865 51.6552 85.6886 52.0748 86.4165Z" fill="black"/>
<path d="M73.2247 90.7284L70.193 86.0456H68.0302V90.7284H65.8674V77.2549H69.6577C71.161 77.2549 72.3661 77.6379 73.272 78.402C74.1779 79.167 74.6308 80.2278 74.6308 81.5854C74.6308 82.4125 74.4548 83.1803 74.1038 83.8897C73.7527 84.599 73.2006 85.1452 72.4494 85.5272L75.7219 90.7275H73.2266L73.2247 90.7284ZM68.0293 83.9731H69.9522C70.8146 83.9731 71.4407 83.7357 71.8288 83.261C72.2169 82.7862 72.4115 82.2521 72.4115 81.6605C72.4115 81.3155 72.3374 80.9669 72.1901 80.6145C72.0419 80.263 71.789 79.9607 71.4324 79.7076C71.0749 79.4545 70.6062 79.3283 70.0272 79.3283H68.0302V83.974L68.0293 83.9731Z" fill="black"/>
<path d="M80.3784 83.1033L80.6739 82.6777L85.7397 77.2549H88.5129L82.9479 83.1404L88.7158 90.7284H85.9796L81.376 84.51L80.4331 85.4354V90.7284H78.2517V77.2549H80.4331V82.419L80.3775 83.1033H80.3784Z" fill="black"/>
<path d="M94.9651 79.0872C94.2991 79.0872 93.773 79.2356 93.3839 79.5314C92.9949 79.8272 92.8013 80.2343 92.8013 80.7526C92.8013 81.271 93.0449 81.6809 93.5312 82.0202C94.0175 82.3596 94.6992 82.6962 95.5736 83.0291C96.2396 83.2637 96.8093 83.5317 97.2835 83.834C97.7578 84.1363 98.1496 84.5462 98.4571 85.0645C98.7646 85.5829 98.9193 86.2366 98.9193 87.0267C98.9193 87.7425 98.7405 88.3898 98.383 88.9702C98.0255 89.5507 97.5077 90.0134 96.8296 90.3584C96.1516 90.7043 95.3504 90.8767 94.426 90.8767C93.6127 90.8767 92.8115 90.7497 92.0223 90.4975C91.2331 90.2443 90.531 89.8957 89.915 89.4515L90.8765 87.7676C91.3322 88.1134 91.8713 88.4 92.4938 88.6281C93.1162 88.8562 93.6924 88.9702 94.2222 88.9702C94.8752 88.9702 95.4486 88.8126 95.9414 88.4983C96.4341 88.1839 96.6805 87.6999 96.6805 87.0452C96.6805 86.5269 96.4739 86.0957 96.0608 85.7498C95.6477 85.4048 95.0716 85.0896 94.3324 84.8058C93.5682 84.5221 92.9338 84.2411 92.428 83.9638C91.9223 83.6866 91.4878 83.298 91.1248 82.7982C90.7607 82.2984 90.5792 81.6725 90.5792 80.9196C90.5792 79.8217 90.9515 78.9361 91.6981 78.2638C92.4438 77.5915 93.4265 77.2308 94.6464 77.1807C95.5338 77.1807 96.3128 77.2827 96.9853 77.4858C97.6568 77.6898 98.282 77.9764 98.8619 78.3463L98.0486 79.9932C96.8899 79.3886 95.8608 79.0863 94.9614 79.0863L94.9651 79.0872Z" fill="black"/>
<path d="M93.6236 71.7487C97.0899 71.7487 99.9 68.9356 99.9 65.4654C99.9 61.9953 97.0899 59.1821 93.6236 59.1821H62.299C58.8326 59.1821 56.0226 61.9953 56.0226 65.4654C56.0226 68.9356 58.8326 71.7487 62.299 71.7487H93.6236Z" fill="#FFC913"/>
<path d="M78.028 49.6218C79.8074 52.5975 83.6727 53.5359 86.6219 51.7166C88.656 50.462 90.5651 49.1693 91.2014 48.5666C96.9461 43.1308 100.399 35.2944 99.962 26.6604C99.2303 12.2022 87.337 0.508158 72.8854 0.0166965C62.3555 -0.342163 53.066 5.10379 47.9632 13.4039C47.8465 13.594 47.7316 13.786 47.6195 13.9788C45.6753 17.3171 47.1138 21.6067 50.6864 23.0699C53.7357 24.319 57.2286 23.0162 58.732 20.0813C59.1812 19.2041 59.5971 18.4817 59.8685 18.1535C63.1021 14.245 68.1975 11.9379 73.795 12.5944C81.0893 13.4503 86.8841 19.4897 87.4787 26.818C87.8918 31.9125 85.8642 36.5471 82.4408 39.6776C82.148 39.9456 81.3644 40.4324 80.3826 40.974C77.2953 42.6755 76.2199 46.5943 78.0299 49.6218H78.028Z" fill="#FFC913"/>
<path d="M43.041 56.4346C43.041 52.9644 40.2309 50.1513 36.7646 50.1513C33.2982 50.1513 30.4882 52.9644 30.4882 56.4346V65.4886C30.4882 68.9588 33.2982 71.7719 36.7646 71.7719C40.2309 71.7719 43.041 68.9588 43.041 65.4886V56.4346Z" fill="black"/>
<path d="M38.1738 9.51993C39.9529 6.54168 38.9834 2.68352 36.0084 0.902487C33.0335 -0.878545 29.1795 0.0919898 27.4005 3.07024L0.889302 47.4509C-0.889778 50.4292 0.0796908 54.2873 3.05467 56.0683C6.02966 57.8494 9.88359 56.8788 11.6627 53.9006L38.1738 9.51993Z" fill="#FFC913"/>
</g>
<defs>
<clipPath id="clip0_29_459">
<rect width="100" height="91.358" fill="white"/>
</clipPath>
</defs>
</svg>