<svg width="100" height="92" viewBox="0 0 100 92" fill="none" xmlns="http://www.w3.org/2000/svg">
<g clip-path="url(#clip0_1860_416)">
<path d="M93.6236 71.7487C97.0899 71.7487 99.9 68.9356 99.9 65.4654C99.9 61.9953 97.0899 59.1821 93.6236 59.1821H62.299C58.8326 59.1821 56.0226 61.9953 56.0226 65.4654C56.0226 68.9356 58.8326 71.7487 62.299 71.7487H93.6236Z" fill="#FFC913"/>
<path d="M78.028 49.6219C79.8074 52.5975 83.6727 53.5359 86.6219 51.7166C88.656 50.462 90.5651 49.1694 91.2014 48.5666C96.9461 43.1309 100.399 35.2944 99.962 26.6604C99.2303 12.2022 87.337 0.508188 72.8854 0.016727C62.3555 -0.342133 53.066 5.10382 47.9632 13.4039C47.8465 13.594 47.7316 13.786 47.6195 13.9789C45.6753 17.3171 47.1138 21.6067 50.6864 23.07C53.7357 24.319 57.2286 23.0162 58.732 20.0813C59.1812 19.2041 59.5971 18.4818 59.8685 18.1535C63.1021 14.245 68.1975 11.9379 73.795 12.5944C81.0893 13.4503 86.8841 19.4897 87.4787 26.8181C87.8918 31.9126 85.8642 36.5471 82.4408 39.6777C82.148 39.9456 81.3644 40.4325 80.3826 40.974C77.2953 42.6756 76.2199 46.5943 78.0299 49.6219H78.028Z" fill="#FFC913"/>
<path d="M43.041 56.4347C43.041 52.9645 40.2309 50.1514 36.7646 50.1514C33.2982 50.1514 30.4882 52.9645 30.4882 56.4347V65.4887C30.4882 68.9588 33.2982 71.772 36.7646 71.772C40.2309 71.772 43.041 68.9588 43.041 65.4887V56.4347Z" fill="black"/>
<path d="M38.1738 9.52002C39.9529 6.54177 38.9834 2.68361 36.0084 0.902579C33.0335 -0.878454 29.1795 0.0920813 27.4005 3.07033L0.889302 47.451C-0.889778 50.4292 0.0796908 54.2874 3.05467 56.0684C6.02966 57.8495 9.88359 56.8789 11.6627 53.9007L38.1738 9.52002Z" fill="#FFC913"/>
</g>
<defs>
<clipPath id="clip0_1860_416">
<rect width="100" height="91.358" fill="white"/>
</clipPath>
</defs>
</svg>