<svg width="452" height="145" viewBox="0 0 452 145" fill="none" xmlns="http://www.w3.org/2000/svg">
<path d="M39.8835 42.4441C25.9777 42.4441 14.517 53.7389 14.517 67.6283C14.517 81.6704 25.9777 92.9652 39.8835 92.9652C53.6364 92.9652 64.9443 81.6704 64.9443 67.6283C64.9443 53.7389 53.6364 42.4441 39.8835 42.4441ZM0 67.6283V7.79676C0 3.82835 3.20901 0.470453 7.33489 0.470453C11.308 0.470453 14.517 3.82835 14.517 7.79676V39.3915C20.4766 32.5231 29.6452 27.9441 39.8835 27.9441C61.8881 27.9441 79.6141 45.6494 79.6141 67.6283C79.6141 89.7599 61.8881 107.618 39.8835 107.618C18.0316 107.618 0 89.7599 0 67.6283Z" fill="url(#paint0_linear_175_299)"/>
<path d="M52.5285 67.2467C52.5285 74.2714 46.8272 79.966 39.7943 79.966C32.7614 79.966 27.0602 74.2714 27.0602 67.2467C27.0602 60.2221 32.7614 54.5274 39.7943 54.5274C46.8272 54.5274 52.5285 60.2221 52.5285 67.2467Z" fill="url(#paint1_linear_175_299)"/>
<path d="M92.68 7.32631C92.68 3.3579 95.7362 0 99.7092 0C103.988 0 107.044 3.51053 107.044 7.32631V99.8211C107.044 103.637 103.988 106.995 99.7092 106.995C95.7362 106.995 92.68 103.789 92.68 99.8211V7.32631Z" fill="url(#paint2_linear_175_299)"/>
<path d="M121.093 67.1579C121.093 45.1789 138.819 27.4737 160.824 27.4737C182.828 27.4737 200.554 45.1789 200.554 67.1579C200.554 89.2895 182.828 107.147 160.824 107.147C138.819 107.147 121.093 89.2895 121.093 67.1579ZM185.885 67.1579C185.885 53.2684 174.577 41.9737 160.824 41.9737C146.765 41.9737 135.457 53.2684 135.457 67.1579C135.457 81.2 146.765 92.4947 160.824 92.4947C174.577 92.4947 185.885 81.2 185.885 67.1579Z" fill="url(#paint3_linear_175_299)"/>
<path d="M232.696 67.1579L209.163 39.3789C206.565 36.4789 206.718 31.9 209.469 29.3053C210.997 28.0842 212.678 27.4737 214.511 27.4737C216.651 27.4737 218.332 28.2368 219.86 29.7632L242.476 56.1684L265.092 29.7632C266.314 28.3895 268.606 27.4737 270.746 27.4737C272.579 27.4737 274.107 28.0842 275.33 29.3053C278.386 31.9 278.845 36.4789 275.941 39.3789L252.408 67.1579L275.941 94.9368C278.845 97.8368 278.386 102.568 275.33 105.316C273.955 106.537 272.427 106.995 270.746 106.995C268.759 106.995 266.467 106.232 265.092 104.705L242.476 77.9947L219.86 104.705C218.485 106.232 216.345 106.995 214.359 106.995C212.525 106.995 210.844 106.537 209.469 105.316C206.718 102.568 206.565 97.8368 209.163 94.9368L232.696 67.1579Z" fill="url(#paint4_linear_175_299)"/>
<path d="M329.204 41.9737C315.298 41.9737 303.837 53.2684 303.837 67.1579C303.837 81.2 315.298 92.4947 329.204 92.4947C342.957 92.4947 354.265 81.2 354.265 67.1579C354.265 53.2684 342.957 41.9737 329.204 41.9737ZM289.32 67.1579V7.32631C289.32 3.3579 292.529 0 296.655 0C300.628 0 303.837 3.3579 303.837 7.32631V38.9211C309.797 32.0526 318.966 27.4737 329.204 27.4737C351.209 27.4737 368.935 45.1789 368.935 67.1579C368.935 89.2895 351.209 107.147 329.204 107.147C307.352 107.147 289.32 89.2895 289.32 67.1579Z" fill="url(#paint5_linear_175_299)"/>
<path d="M395.46 118.747C399.739 125.768 407.838 130.347 416.701 130.347C425.717 130.347 433.51 125.768 438.094 118.747C439.622 116.458 441.914 115.237 444.359 115.237C445.582 115.237 446.652 115.542 447.874 116.305C451.542 118.747 452.458 123.021 450.319 126.532C443.29 137.674 430.912 145 416.701 145C402.337 145 390.265 137.674 383.083 126.532C380.79 123.021 382.013 118.747 385.375 116.305C386.597 115.542 387.82 115.237 389.042 115.237C391.487 115.237 393.779 116.458 395.46 118.747ZM381.402 71.5842V34.6474C381.402 30.679 384.458 27.4737 388.584 27.4737C392.557 27.4737 395.919 30.679 395.919 34.6474V71.5842C395.919 83.0316 405.393 92.3421 416.701 92.3421C428.314 92.3421 437.483 83.0316 437.483 71.5842V34.6474C437.483 30.679 440.692 27.4737 444.818 27.4737C448.791 27.4737 452 30.679 452 34.6474V71.5842C452 91.1211 436.108 107.147 416.701 107.147C397.141 107.147 381.402 91.1211 381.402 71.5842Z" fill="url(#paint6_linear_175_299)"/>
<defs>
<linearGradient id="paint0_linear_175_299" x1="0" y1="0" x2="97.0729" y2="301.828" gradientUnits="userSpaceOnUse">
<stop stop-color="#0047AB"/>
<stop offset="1" stop-color="#00D1D1"/>
</linearGradient>
<linearGradient id="paint1_linear_175_299" x1="0" y1="0" x2="97.0729" y2="301.828" gradientUnits="userSpaceOnUse">
<stop stop-color="#0047AB"/>
<stop offset="1" stop-color="#00D1D1"/>
</linearGradient>
<linearGradient id="paint2_linear_175_299" x1="0" y1="0" x2="97.0729" y2="301.828" gradientUnits="userSpaceOnUse">
<stop stop-color="#0047AB"/>
<stop offset="1" stop-color="#00D1D1"/>
</linearGradient>
<linearGradient id="paint3_linear_175_299" x1="0" y1="0" x2="97.0729" y2="301.828" gradientUnits="userSpaceOnUse">
<stop stop-color="#0047AB"/>
<stop offset="1" stop-color="#00D1D1"/>
</linearGradient>
<linearGradient id="paint4_linear_175_299" x1="0" y1="0" x2="97.0729" y2="301.828" gradientUnits="userSpaceOnUse">
<stop stop-color="#0047AB"/>
<stop offset="1" stop-color="#00D1D1"/>
</linearGradient>
<linearGradient id="paint5_linear_175_299" x1="0" y1="0" x2="97.0729" y2="301.828" gradientUnits="userSpaceOnUse">
<stop stop-color="#0047AB"/>
<stop offset="1" stop-color="#00D1D1"/>
</linearGradient>
<linearGradient id="paint6_linear_175_299" x1="0" y1="0" x2="97.0729" y2="301.828" gradientUnits="userSpaceOnUse">
<stop stop-color="#0047AB"/>
<stop offset="1" stop-color="#00D1D1"/>
</linearGradient>
</defs>
</svg>
